<svg width="32" height="33" viewBox="0 0 32 33" fill="none" xmlns="http://www.w3.org/2000/svg">
<path d="M21.3333 4.09009C20.626 4.09009 19.9478 4.37104 19.4477 4.87114C18.9476 5.37123 18.6666 6.04951 18.6666 6.75675V14.7568C18.6666 15.464 18.9476 16.1423 19.4477 16.6424C19.9478 17.1425 20.626 17.4234 21.3333 17.4234C21.6869 17.4234 22.0261 17.5639 22.2761 17.8139C22.5262 18.064 22.6666 18.4031 22.6666 18.7568V20.0901C22.6666 20.7973 22.3857 21.4756 21.8856 21.9757C21.3855 22.4758 20.7072 22.7568 20 22.7568C19.6463 22.7568 19.3072 22.8972 19.0572 23.1473C18.8071 23.3973 18.6666 23.7365 18.6666 24.0901V26.7568C18.6666 27.1104 18.8071 27.4495 19.0572 27.6996C19.3072 27.9496 19.6463 28.0901 20 28.0901C22.1217 28.0901 24.1565 27.2472 25.6568 25.7469C27.1571 24.2467 28 22.2118 28 20.0901V6.75675C28 6.04951 27.719 5.37123 27.2189 4.87114C26.7188 4.37104 26.0405 4.09009 25.3333 4.09009H21.3333Z" stroke="#155DFC" stroke-width="2.66667" stroke-linecap="round" stroke-linejoin="round"/>
<path d="M6.66667 4.09009C5.95942 4.09009 5.28115 4.37104 4.78105 4.87114C4.28095 5.37123 4 6.04951 4 6.75675V14.7568C4 15.464 4.28095 16.1423 4.78105 16.6424C5.28115 17.1425 5.95942 17.4234 6.66667 17.4234C7.02029 17.4234 7.35943 17.5639 7.60948 17.8139C7.85952 18.064 8 18.4031 8 18.7568V20.0901C8 20.7973 7.71905 21.4756 7.21895 21.9757C6.71885 22.4758 6.04058 22.7568 5.33333 22.7568C4.97971 22.7568 4.64057 22.8972 4.39052 23.1473C4.14048 23.3973 4 23.7365 4 24.0901V26.7568C4 27.1104 4.14048 27.4495 4.39052 27.6996C4.64057 27.9496 4.97971 28.0901 5.33333 28.0901C7.45507 28.0901 9.4899 27.2472 10.9902 25.7469C12.4905 24.2467 13.3333 22.2118 13.3333 20.0901V6.75675C13.3333 6.04951 13.0524 5.37123 12.5523 4.87114C12.0522 4.37104 11.3739 4.09009 10.6667 4.09009H6.66667Z" stroke="#155DFC" stroke-width="2.66667" stroke-linecap="round" stroke-linejoin="round"/>
</svg>
